<?xml version="1.0" standalone="no"?>
<!DOCTYPE svg PUBLIC "-//W3C//DTD SVG 1.1//EN" "http://www.w3.org/Graphics/SVG/1.1/DTD/svg11.dtd" >
<svg xmlns="http://www.w3.org/2000/svg" xmlns:xlink="http://www.w3.org/1999/xlink" version="1.1">
<metadata></metadata>
<defs>
<font id="geometric_706bold_condensed" horiz-adv-x="1024" >
<font-face units-per-em="2048" ascent="1638" descent="-410" />
<missing-glyph horiz-adv-x="446" />
<glyph unicode=" "  horiz-adv-x="446" />
<glyph unicode="&#x09;" horiz-adv-x="446" />
<glyph unicode="&#xa0;" horiz-adv-x="446" />
<glyph unicode="!" horiz-adv-x="473" d="M109 104q0 53 37.5 90t91.5 37t90.5 -36.5t36.5 -90.5t-37 -91.5t-90 -37.5q-51 0 -90 39t-39 90zM123 1565h227l-37 -1157h-153z" />
<glyph unicode="&#x22;" horiz-adv-x="614" d="M90 881v555h139v-555h-139zM385 881v555h139v-555h-139z" />
<glyph unicode="#" horiz-adv-x="1574" d="M88 449l53 145h310l92 264h-330l51 146h332l162 454h166l-162 -454h256l164 454h164l-160 -454h301l-51 -146h-303l-93 -264h322l-51 -145h-322l-162 -453h-165l161 453h-258l-162 -453h-165l159 453h-309zM616 594h261l92 264h-260z" />
<glyph unicode="$" horiz-adv-x="890" d="M98 348l176 62q30 -234 164 -234q64 0 106 50t42 132q0 76 -34 135t-110 142q-16 17 -62 61.5t-89.5 91.5t-81.5 99q-88 120 -88 268q0 137 72.5 226.5t199.5 111.5v170h92v-170q125 -20 191.5 -94.5t79.5 -210.5l-181 -66q-4 98 -39.5 148.5t-97.5 50.5q-56 0 -91.5 -41 t-35.5 -111q0 -69 31.5 -122t99.5 -125q21 -22 68.5 -67t93 -93t84.5 -100q92 -124 92 -281q0 -158 -77 -257t-218 -122v-186h-92v186q-122 12 -197.5 100.5t-97.5 245.5z" />
<glyph unicode="%" horiz-adv-x="1306" d="M43 1169q0 173 66.5 261t195.5 88t196.5 -89t67.5 -260t-67.5 -259.5t-196.5 -88.5q-128 0 -195 88.5t-67 259.5zM215 1169q0 -107 20.5 -156.5t69.5 -49.5q51 0 71.5 48.5t20.5 157.5q0 108 -21 157.5t-71 49.5t-70 -49t-20 -158zM254 -25l688 1543h109l-686 -1543h-111 zM735 324q0 173 66.5 261.5t195.5 88.5t197 -89.5t68 -260.5t-68 -260t-197 -89q-128 0 -195 89t-67 260zM907 324q0 -106 20.5 -155.5t69.5 -49.5q52 0 73.5 48.5t21.5 156.5q0 107 -22.5 156.5t-72.5 49.5t-70 -48.5t-20 -157.5z" />
<glyph unicode="&#x26;" horiz-adv-x="1019" d="M70 346q0 124 65.5 235.5t202.5 235.5q-117 214 -117 338q0 123 75.5 200t192.5 77q130 0 206.5 -78.5t76.5 -212.5q0 -94 -46 -179t-144 -180l209 -370q49 60 90 147l155 -108q-42 -81 -145 -213l135 -238h-215l-57 100q-137 -131 -322 -131q-161 0 -261.5 105 t-100.5 272zM270 375q0 -91 56 -151t139 -60q96 0 190 98l-225 393q-160 -132 -160 -280zM412 1151q0 -75 77 -205q95 89 95 189q0 58 -24.5 90t-67.5 32q-35 0 -57.5 -29t-22.5 -77z" />
<glyph unicode="'" horiz-adv-x="317" d="M90 881v555h139v-555h-139z" />
<glyph unicode="(" horiz-adv-x="591" d="M123 713q0 525 248 1001l166 -80q-222 -423 -222 -921q0 -499 222 -922l-166 -82q-248 476 -248 1004z" />
<glyph unicode=")" horiz-adv-x="591" d="M55 -209q219 417 219 922q0 504 -219 921l166 80q248 -479 248 -1001q0 -525 -248 -1004z" />
<glyph unicode="*" d="M121 1219l51 157l260 -86v275h158v-275l256 86l57 -159l-270 -74l178 -234l-133 -98l-166 242l-168 -236l-135 92l182 234z" />
<glyph unicode="+" horiz-adv-x="1705" d="M254 541v139h528v541h142v-541h528v-139h-528v-541h-142v541h-528z" />
<glyph unicode="," horiz-adv-x="446" d="M12 -238l140 459h215l-174 -459h-181z" />
<glyph unicode="-" horiz-adv-x="645" d="M119 498v174h407v-174h-407z" />
<glyph unicode="." horiz-adv-x="446" d="M94 104q0 53 37.5 90t91.5 37t90.5 -36.5t36.5 -90.5t-37 -91.5t-90 -37.5q-51 0 -90 39t-39 90z" />
<glyph unicode="/" horiz-adv-x="569" d="M-100 -190l577 1785h141l-579 -1785h-139z" />
<glyph unicode="0" horiz-adv-x="890" d="M94 745q0 394 84 583.5t268 189.5q188 0 269.5 -194.5t81.5 -610.5q0 -372 -86.5 -555t-264.5 -183q-184 0 -268 188.5t-84 581.5zM309 752q0 -328 26 -460t111 -132t110.5 131.5t25.5 460.5t-25.5 461.5t-110.5 132.5t-111 -133t-26 -461z" />
<glyph unicode="1" horiz-adv-x="890" d="M162 1094v178q201 86 348 246h53v-1518h-203v1210q-108 -80 -198 -116z" />
<glyph unicode="2" horiz-adv-x="890" d="M49 0l412 829q92 186 92 334q0 87 -35.5 133.5t-101.5 46.5q-70 0 -107 -61.5t-37 -181.5v-27h-200v33q0 194 97 303t265 109q154 0 244 -95.5t90 -259.5q0 -96 -34.5 -198t-104.5 -236l-275 -534h402v-195h-707z" />
<glyph unicode="3" horiz-adv-x="890" d="M78 418h207v-10q0 -115 35.5 -175.5t99.5 -60.5q71 0 111 74.5t40 214.5q0 160 -43 242.5t-125 82.5q-72 0 -129 -69l-118 94l311 502h-352v180h671l-352 -567q48 10 78 10q128 0 199 -116t71 -335q0 -247 -94.5 -378.5t-267.5 -131.5q-159 0 -247.5 113.5t-94.5 329.5z " />
<glyph unicode="4" horiz-adv-x="890" d="M68 283v155l430 1055h196v-1032h156v-178h-156v-283h-196v283h-430zM215 461h283v512q0 89 24 258z" />
<glyph unicode="5" horiz-adv-x="890" d="M115 434v6h207q0 -282 133 -282q143 0 143 368q0 166 -33 247t-104 81q-51 0 -84 -40t-43 -118h-180l20 797h604v-180h-422l-10 -373q73 98 191 98q129 0 201.5 -124.5t72.5 -360.5q0 -286 -91.5 -432t-268.5 -146q-158 0 -247 119.5t-89 339.5z" />
<glyph unicode="6" horiz-adv-x="890" d="M88 481q0 225 95 462.5t290 549.5h240q-178 -263 -295 -514q55 22 100 22q131 0 208 -124t77 -351q0 -263 -98 -406t-273 -143q-155 0 -249.5 133.5t-94.5 370.5zM305 500q0 -328 141 -328q142 0 142 330q0 155 -37 235t-105 80q-67 0 -104 -81t-37 -236z" />
<glyph unicode="7" horiz-adv-x="890" d="M127 1313v180h700l-483 -1493h-205l428 1313h-440z" />
<glyph unicode="8" horiz-adv-x="890" d="M92 436q0 160 47 253t146 128q-82 28 -125 106t-43 201q0 186 88 290t239 104t239.5 -104t88.5 -290q0 -123 -43 -201t-125 -106q99 -35 146 -128.5t47 -252.5q0 -224 -91.5 -342.5t-261.5 -118.5t-261 118t-91 343zM301 451q0 -291 141 -291q142 0 142 291 q0 268 -142 268q-141 0 -141 -268zM319 1128q0 -117 29 -173t94 -56t95 57.5t30 178.5q0 211 -125 211q-123 0 -123 -218z" />
<glyph unicode="9" horiz-adv-x="890" d="M88 967q0 263 99 407t274 144q155 0 248.5 -134t93.5 -372q0 -227 -94.5 -464t-288.5 -548h-242q178 263 295 514q-55 -22 -100 -22q-131 0 -208 124t-77 351zM303 991q0 -155 37.5 -235t105.5 -80q67 0 104.5 82t37.5 237q0 326 -142 326q-143 0 -143 -330z" />
<glyph unicode=":" horiz-adv-x="446" d="M94 104q0 53 37.5 91t91.5 38t90.5 -37.5t36.5 -91.5t-37 -90.5t-90 -36.5q-51 0 -90 38t-39 89zM94 952q0 53 37.5 90t91.5 37t90.5 -36.5t36.5 -90.5t-37 -91.5t-90 -37.5q-51 0 -90 39t-39 90z" />
<glyph unicode=";" horiz-adv-x="446" d="M12 -238l140 459h215l-174 -459h-181zM115 952q0 53 37.5 90t91.5 37t90.5 -36.5t36.5 -90.5t-37 -91.5t-90 -37.5q-51 0 -90 39t-39 90z" />
<glyph unicode="&#x3c;" horiz-adv-x="1705" d="M264 547v129l1178 483v-153l-969 -396l969 -393v-154z" />
<glyph unicode="=" horiz-adv-x="1705" d="M254 342v139h1198v-139h-1198zM254 739v140h1198v-140h-1198z" />
<glyph unicode="&#x3e;" horiz-adv-x="1705" d="M264 63v154l971 393l-971 396v153l1178 -483v-129z" />
<glyph unicode="?" horiz-adv-x="724" d="M39 1147v14q0 214 86.5 323t255.5 109q137 0 217 -93t80 -261q0 -40 -4.5 -76t-16.5 -72.5t-21 -61.5t-31 -63.5t-32 -55.5t-38 -60t-37 -57q-49 -78 -73 -150t-24 -178q0 -7 1 -23t1 -24h-174q-2 29 -2 80q0 106 23 191t76 171q11 19 46 72t52 83.5t34 88t17 119.5 q0 188 -115 188q-62 0 -94.5 -59t-32.5 -174v-31h-194zM188 104q0 53 36.5 90t90.5 37t91.5 -36.5t37.5 -90.5t-38 -91.5t-91 -37.5q-51 0 -89 39t-38 90z" />
<glyph unicode="@" horiz-adv-x="2048" d="M106 522q0 335 203 582q145 177 350.5 269.5t456.5 92.5q166 0 312.5 -46t250.5 -126q129 -100 197 -231t68 -283q0 -175 -63 -315.5t-185 -235.5q-139 -112 -316 -112q-200 0 -200 157v19q-108 -174 -301 -174q-152 0 -233 85.5t-81 246.5q0 156 63.5 283t172.5 198.5 t241 71.5q170 0 242 -150l57 115h132l-146 -576q-8 -33 -8 -59q0 -94 100 -94q101 0 209 102q79 75 124.5 185.5t45.5 234.5q0 257 -189 419t-501 162q-266 0 -457 -114t-296 -299.5t-105 -409.5q0 -177 61.5 -307.5t192.5 -230.5q99 -75 234.5 -117.5t289.5 -42.5 q169 0 329 49t292 141l55 -82q-296 -223 -664 -223q-382 0 -628 187q-306 236 -306 628zM725 446q0 -106 48.5 -162.5t137.5 -56.5q96 0 173.5 68t105.5 180l59 236q-17 89 -68.5 136.5t-129.5 47.5q-90 0 -165 -59.5t-118 -163t-43 -226.5z" />
<glyph unicode="A" horiz-adv-x="919" d="M20 0l338 1565h222l340 -1565h-209l-68 324h-360l-68 -324h-195zM319 510h289l-147 719z" />
<glyph unicode="B" horiz-adv-x="972" d="M141 0v1565h260q227 0 348 -105.5t121 -294.5q0 -123 -53.5 -204t-154.5 -113q243 -93 243 -379q0 -218 -120.5 -343.5t-331.5 -125.5h-312zM352 190q20 -2 58 -2q272 0 272 289q0 133 -79 203t-232 70h-19v-560zM352 922q14 -2 43 -2q129 0 196.5 60t67.5 173 q0 111 -71 169t-209 58h-27v-458z" />
<glyph unicode="C" horiz-adv-x="901" d="M94 786q0 408 109 606.5t338 198.5q133 0 224.5 -89t135.5 -263l-211 -65q-15 113 -58.5 171t-111.5 58q-205 0 -205 -621q0 -317 45 -463.5t152 -146.5q156 0 190 303l211 -74q-34 -211 -137 -319.5t-268 -108.5q-217 0 -315.5 198t-98.5 615z" />
<glyph unicode="D" horiz-adv-x="974" d="M141 0v1565h226q263 0 399.5 -192.5t136.5 -569.5q0 -389 -144 -596t-407 -207h-211zM352 190q330 12 330 635q0 553 -330 559v-1194z" />
<glyph unicode="E" horiz-adv-x="792" d="M141 0v1565h561v-185h-350v-454h350v-185h-350v-551h350v-190h-561z" />
<glyph unicode="F" horiz-adv-x="763" d="M141 0v1565h561v-185h-350v-454h350v-185h-350v-741h-211z" />
<glyph unicode="G" horiz-adv-x="958" d="M94 766q0 419 105.5 624t324.5 205q130 0 218 -86.5t122 -251.5l-202 -73q-19 117 -56 171t-102 54q-96 0 -142.5 -158t-46.5 -481q0 -311 41.5 -456.5t137.5 -145.5q87 0 139.5 125t52.5 356q0 51 -2 78h-213v184h426v-184q0 -372 -104 -565t-301 -193 q-202 0 -300 197.5t-98 599.5z" />
<glyph unicode="H" horiz-adv-x="1013" d="M141 0v1565h211v-641h310v641h210v-1565h-210v739h-310v-739h-211z" />
<glyph unicode="I" horiz-adv-x="495" d="M141 0v1565h211v-1565h-211z" />
<glyph unicode="J" horiz-adv-x="702" d="M-23 115l144 143q54 -100 121 -100q59 0 82.5 51t23.5 162v1194h211v-1180q0 -210 -77.5 -313t-239.5 -103q-171 0 -265 146z" />
<glyph unicode="K" horiz-adv-x="890" d="M141 0v1565h213v-707l348 707h226l-377 -721l401 -844h-227l-371 807v-807h-213z" />
<glyph unicode="L" horiz-adv-x="696" d="M141 0v1565h211v-1366h353v-199h-564z" />
<glyph unicode="M" horiz-adv-x="1359" d="M141 0v1565h230l311 -1145l307 1145h232v-1565h-205v649q0 268 49 664l-311 -1157h-152l-307 1157q47 -409 47 -666v-647h-201z" />
<glyph unicode="N" horiz-adv-x="1030" d="M141 0v1565h217l267 -885q32 -105 108 -436h15q-58 430 -58 684v637h199v-1565h-213l-268 877q-66 217 -107 428h-14q55 -515 55 -697v-608h-201z" />
<glyph unicode="O" horiz-adv-x="997" d="M94 782q0 413 98.5 613t307.5 200q214 0 308.5 -205t94.5 -640q0 -781 -403 -781q-209 0 -307.5 200t-98.5 613zM315 788q0 -321 42 -468.5t143 -147.5q102 0 142 145t40 471q0 323 -41 471t-141 148q-102 0 -143.5 -148t-41.5 -471z" />
<glyph unicode="P" horiz-adv-x="858" d="M141 0v1565h211q224 0 344.5 -121.5t120.5 -345.5q0 -228 -112 -363t-293 -135h-60v-600h-211zM352 784h17q109 0 169 75.5t60 215.5q0 158 -59 233.5t-183 75.5h-4v-600z" />
<glyph unicode="Q" horiz-adv-x="997" d="M94 782q0 413 98.5 613t307.5 200t306 -199.5t97 -613.5q0 -491 -135 -676l96 -155l-159 -98l-74 139q-87 -23 -131 -23q-209 0 -307.5 200t-98.5 613zM315 788q0 -329 44.5 -488t140.5 -159q23 0 47 9l-90 163l125 76l67 -117q33 161 33 516q0 323 -41 471t-141 148 q-102 0 -143.5 -148t-41.5 -471z" />
<glyph unicode="R" horiz-adv-x="948" d="M141 0v1565h301q211 0 328 -109t117 -301q0 -145 -69 -248t-197 -149l311 -758h-227l-287 729h-64v-729h-213zM354 907h27q139 0 212 59.5t73 168.5q0 124 -68.5 184.5t-208.5 60.5h-35v-473z" />
<glyph unicode="S" horiz-adv-x="815" d="M39 348l192 70q20 -130 63 -192t116 -62q68 0 113.5 55t45.5 143q0 82 -37 147t-118 153q-21 23 -69.5 69.5t-97 98t-89.5 106.5q-95 128 -95 291q0 165 97.5 266.5t253.5 101.5q147 0 237 -86.5t105 -246.5l-197 -70q-4 107 -42.5 162t-106.5 55q-61 0 -100.5 -46 t-39.5 -120q0 -76 34 -132.5t110 -137.5q17 -18 72 -69.5t103 -102.5t91 -109q102 -135 102 -307q0 -189 -104 -301.5t-275 -112.5q-151 0 -244.5 96t-119.5 281z" />
<glyph unicode="T" horiz-adv-x="706" d="M-25 1380v185h754v-185h-270v-1380h-211v1380h-273z" />
<glyph unicode="U" d="M141 504v1061h211v-1043q0 -193 32.5 -274.5t127.5 -81.5t127.5 81.5t32.5 274.5v1043h211v-1061q0 -273 -89 -404t-282 -131t-282 131t-89 404z" />
<glyph unicode="V" horiz-adv-x="796" d="M20 1565h226l106 -774q27 -208 45 -512h17q28 393 53 567l102 719h215l-280 -1565h-197z" />
<glyph unicode="W" horiz-adv-x="1290" d="M29 1565h219l84 -736q22 -213 45 -587h16q32 395 62 645l84 678h225l94 -844q17 -136 31 -479h14q37 405 66 622l94 701h213l-277 -1565h-202l-105 864q-35 304 -37 482h-14q-29 -348 -53 -529l-109 -817h-200z" />
<glyph unicode="X" horiz-adv-x="739" d="M-6 0l276 819l-252 746h224l137 -553l139 553h217l-254 -738l281 -827h-225l-162 598l-166 -598h-215z" />
<glyph unicode="Y" horiz-adv-x="716" d="M-18 1565h219l164 -684l163 684h211l-270 -916v-649h-211v639z" />
<glyph unicode="Z" horiz-adv-x="720" d="M-16 0l489 1380h-436v185h708l-483 -1370h445v-195h-723z" />
<glyph unicode="[" horiz-adv-x="591" d="M145 -254v1931h326v-168h-145v-1597h145v-166h-326z" />
<glyph unicode="\" horiz-adv-x="569" d="M-49 1595h139l580 -1785h-140z" />
<glyph unicode="]" horiz-adv-x="591" d="M121 -88h145v1597h-145v168h325v-1931h-325v166z" />
<glyph unicode="^" horiz-adv-x="2048" d="M420 901l510 557h186l510 -557h-180l-422 420l-424 -420h-180z" />
<glyph unicode="_" d="M0 -340h1024v-143h-1024v143z" />
<glyph unicode="`" d="M285 1538h178l170 -272h-101z" />
<glyph unicode="a" horiz-adv-x="864" d="M88 588q0 278 64 419.5t186 141.5q136 0 201 -182v163h196v-1130h-196v186q-71 -198 -201 -198q-120 0 -185 153.5t-65 446.5zM293 586q0 -220 26.5 -318t94.5 -98q72 0 102.5 100t30.5 316q0 393 -123 393q-68 0 -99.5 -96t-31.5 -297z" />
<glyph unicode="b" horiz-adv-x="874" d="M139 0v1565h197v-619q33 97 85 148t116 51q122 0 185.5 -145.5t63.5 -428.5q0 -587 -249 -587q-145 0 -218 227v-211h-180zM328 549q0 -200 30 -296.5t95 -96.5q68 0 98.5 100.5t30.5 310.5q0 208 -27.5 303t-93.5 95q-72 0 -102.5 -100.5t-30.5 -315.5z" />
<glyph unicode="c" horiz-adv-x="702" d="M82 573q0 294 78.5 438t242.5 144q125 0 200 -77t85 -218l-178 -47q-11 91 -35.5 131.5t-73.5 40.5q-63 0 -87.5 -94.5t-24.5 -302.5q0 -225 28 -328.5t97 -103.5q46 0 69.5 50t32.5 159l176 -68q-20 -157 -93 -239.5t-191 -82.5q-169 0 -247.5 147t-78.5 451z" />
<glyph unicode="d" horiz-adv-x="874" d="M88 571q0 284 64 429t186 145q128 0 199 -199v619h198v-1565h-180v211q-73 -227 -219 -227q-248 0 -248 587zM293 549q0 -200 31 -296.5t96 -96.5t96 96.5t31 296.5q0 216 -30.5 316t-102.5 100q-68 0 -94.5 -98t-26.5 -318z" />
<glyph unicode="e" horiz-adv-x="833" d="M82 584q0 283 90.5 427t265.5 144q160 0 243 -118.5t83 -350.5v-131h-477v-43q0 -188 31.5 -273t107.5 -85q119 0 131 208h191q-12 -188 -97 -287.5t-229 -99.5q-173 0 -256.5 151t-83.5 458zM289 711h280v12q0 135 -34 200.5t-107 65.5q-139 0 -139 -278z" />
<glyph unicode="f" horiz-adv-x="530" d="M61 961v169h113v195q0 134 48.5 194t160.5 60h100v-193h-45q-36 0 -51.5 -21.5t-15.5 -68.5v-166h112v-169h-112v-961h-197v961h-113z" />
<glyph unicode="g" horiz-adv-x="864" d="M88 592q0 275 64 416t186 141q136 0 201 -182v163h196v-1011q0 -273 -79 -397.5t-271 -124.5q-90 0 -164 39t-121 112l158 121q54 -98 150 -98q71 0 101 61.5t30 194.5v172q-35 -98 -86.5 -148.5t-114.5 -50.5q-119 0 -184.5 151.5t-65.5 440.5zM293 590q0 -216 27 -313 t94 -97q72 0 102.5 100t30.5 316q0 383 -123 383q-68 0 -99.5 -95t-31.5 -294z" />
<glyph unicode="h" horiz-adv-x="886" d="M139 0v1565h197v-574q79 162 223 162q109 0 158 -80t49 -248v-825h-197v778q0 98 -24.5 143.5t-83.5 45.5q-57 0 -91 -49t-34 -138v-780h-197z" />
<glyph unicode="i" horiz-adv-x="491" d="M117 1405q0 53 37 91t90 38q54 0 91.5 -37.5t37.5 -91.5q0 -53 -38 -90t-91 -37q-51 0 -89 38t-38 89zM145 0v1130h199v-1130h-199z" />
<glyph unicode="j" horiz-adv-x="479" d="M20 -207q36 -8 48 -8q51 0 68.5 47.5t17.5 159.5v1138h196v-1120q0 -219 -53.5 -316t-194.5 -97q-31 0 -82 14v182zM123 1405q0 53 37.5 91t91.5 38t90.5 -37.5t36.5 -91.5t-37 -90.5t-90 -36.5q-51 0 -90 38t-39 89z" />
<glyph unicode="k" horiz-adv-x="749" d="M139 0v1565h197v-893h10l176 458h197l-213 -464l227 -666h-203l-184 637h-10v-637h-197z" />
<glyph unicode="l" horiz-adv-x="491" d="M145 0v1565h199v-1565h-199z" />
<glyph unicode="m" horiz-adv-x="1314" d="M139 0v1130h189v-143q91 166 219 166q83 0 132 -39t77 -127q93 166 231 166q111 0 159 -79.5t48 -248.5v-825h-197v778q0 98 -24.5 143.5t-83.5 45.5q-57 0 -90 -49t-33 -138v-780h-197v778q0 98 -24.5 143.5t-83.5 45.5q-57 0 -91 -49t-34 -138v-780h-197z" />
<glyph unicode="n" horiz-adv-x="886" d="M139 0v1130h189v-143q47 85 103 125.5t126 40.5q111 0 160 -79.5t49 -248.5v-825h-197v778q0 98 -24.5 143.5t-83.5 45.5q-57 0 -91 -49t-34 -138v-780h-197z" />
<glyph unicode="o" horiz-adv-x="851" d="M82 565q0 590 342 590q174 0 259 -146.5t85 -443.5t-85 -442.5t-259 -145.5q-173 0 -257.5 145.5t-84.5 442.5zM287 571q0 -217 31 -316t106 -99q76 0 107.5 98.5t31.5 316.5q0 217 -32 317.5t-107 100.5q-76 0 -106.5 -99.5t-30.5 -318.5z" />
<glyph unicode="p" horiz-adv-x="874" d="M139 -379v1509h180v-206q73 225 218 225q127 0 188 -146t61 -442q0 -277 -66.5 -425t-182.5 -148q-64 0 -116 50.5t-85 147.5v-565h-197zM328 586q0 -216 30.5 -316t102.5 -100q66 0 93.5 94.5t27.5 302.5q0 214 -30 313t-101 99q-123 0 -123 -393z" />
<glyph unicode="q" horiz-adv-x="874" d="M88 588q0 278 64 419.5t186 141.5q73 0 126.5 -55.5t90.5 -169.5v206h180v-1509h-196v565q-71 -198 -201 -198q-120 0 -185 153.5t-65 446.5zM293 586q0 -220 26.5 -318t94.5 -98q72 0 102.5 100t30.5 316q0 393 -123 393q-68 0 -99.5 -96t-31.5 -297z" />
<glyph unicode="r" horiz-adv-x="581" d="M139 0v1130h183v-210q31 107 91.5 164t157.5 67v-217h-18q-68 0 -110 -16t-66 -55.5t-32.5 -93.5t-8.5 -142v-627h-197z" />
<glyph unicode="s" horiz-adv-x="677" d="M33 201l164 102q24 -72 65.5 -110.5t89.5 -38.5q54 0 86.5 37.5t32.5 103.5q0 17 -4 32.5t-8.5 28t-17.5 28.5t-20.5 25t-28 27t-30 25.5t-37 29.5t-38.5 31q-62 50 -96.5 81.5t-68.5 74t-48.5 87t-14.5 99.5q0 131 84.5 210t229.5 79q102 0 174 -56.5t100 -158.5 l-153 -90q-34 141 -138 141q-53 0 -84.5 -31.5t-31.5 -83.5q0 -18 4 -33.5t15.5 -32t21 -28t32 -30.5t36 -29.5t46 -34.5t49.5 -37q113 -87 167.5 -173t54.5 -185q0 -132 -92 -223t-222 -91q-214 0 -319 224z" />
<glyph unicode="t" horiz-adv-x="530" d="M57 961v169h105v283h196v-283h113v-169h-113v-633q0 -82 20 -114t81 -32h12v-188q-53 -6 -94 -6q-129 0 -172 64t-43 229v680h-105z" />
<glyph unicode="u" horiz-adv-x="872" d="M119 428v702h196v-724q0 -125 28 -184.5t91 -59.5q64 0 92.5 59.5t28.5 184.5v724h197v-702q0 -229 -77.5 -341t-240.5 -112t-239 111.5t-76 341.5z" />
<glyph unicode="v" horiz-adv-x="673" d="M27 1130h200l64 -397q35 -203 53 -512h14q15 286 56 531l61 378h193l-224 -1130h-194z" />
<glyph unicode="w" horiz-adv-x="1042" d="M33 1130h192l47 -368q26 -219 50 -555h14q26 328 55 557l45 366h189l41 -333q35 -269 57 -590h16q20 293 62 649l30 274h197l-199 -1130h-188l-53 440q-31 244 -51 541h-15q-13 -186 -57 -557l-51 -424h-189z" />
<glyph unicode="x" horiz-adv-x="645" d="M18 0l220 596l-215 534h206l107 -374l98 374h195l-203 -532l219 -598h-201l-118 442l-113 -442h-195z" />
<glyph unicode="y" horiz-adv-x="673" d="M27 1130h200l68 -403q30 -188 55 -473h15q41 488 55 571l47 305h199l-308 -1509h-190l92 449z" />
<glyph unicode="z" horiz-adv-x="626" d="M-4 0l375 950h-346v180h614l-375 -940h365v-190h-633z" />
<glyph unicode="{" d="M168 457v149q8 0 23 -1t22 -1q131 0 184.5 60.5t53.5 207.5v246q0 132 18.5 200.5t81.5 106.5q86 52 278 52h37v-150h-41q-125 0 -163.5 -46.5t-38.5 -182.5v-242q0 -150 -41 -222.5t-160 -103.5q121 -31 161 -102.5t40 -222.5v-242q0 -70 7.5 -110t29.5 -69t61.5 -39.5 t105.5 -10.5h39v-148h-43q-98 0 -162 10t-110 39q-63 38 -81.5 107t-18.5 201v245q0 147 -54 209t-186 62q-7 0 -21.5 -1t-21.5 -1z" />
<glyph unicode="|" d="M438 -483v2048h150v-2048h-150z" />
<glyph unicode="}" d="M160 -266h39q126 0 165 47.5t39 183.5v240q0 150 40.5 222t160.5 103q-119 31 -160 103.5t-41 222.5v242q0 135 -39 182t-165 47h-39v150h37q194 0 278 -52q63 -38 81.5 -106.5t18.5 -200.5v-246q0 -147 53.5 -207.5t184.5 -60.5q7 0 22 1t23 1v-149q-7 0 -22 1t-21 1 q-134 0 -187 -61.5t-53 -209.5v-245q0 -132 -18.5 -201t-81.5 -107q-46 -29 -110 -39t-162 -10h-43v148z" />
<glyph unicode="~" horiz-adv-x="1705" d="M178 451v155q212 144 387 144q118 0 291 -62q11 -4 41.5 -15t43 -15t39 -12.5t42.5 -12.5t38.5 -8.5t42.5 -6.5t40 -2q92 0 184.5 38t202.5 116v-156q-203 -141 -389 -141q-22 0 -43 2t-44.5 6.5t-39 8t-43 12.5t-38 12.5t-42.5 14.5t-39 14q-66 23 -99 33t-87.5 21 t-102.5 11q-88 0 -180 -38.5t-205 -118.5z" />
<glyph unicode="&#xa1;" horiz-adv-x="473" d="M109 1460q0 53 38 90t91 37q51 0 89 -38t38 -89q0 -53 -37 -91t-90 -38q-54 0 -91.5 37.5t-37.5 91.5zM123 0l37 1157h153l37 -1157h-227z" />
<glyph unicode="&#xa2;" horiz-adv-x="890" d="M162 754q0 276 67 418t211 161v185h86v-185q106 -14 169 -88.5t73 -202.5l-178 -49q-8 91 -32.5 131.5t-76.5 40.5q-63 0 -87.5 -94.5t-24.5 -302.5q0 -225 28 -328.5t97 -103.5q46 0 69.5 50t32.5 159l176 -66q-20 -145 -80 -222.5t-166 -96.5v-185h-86v187 q-147 23 -212.5 166.5t-65.5 425.5z" />
<glyph unicode="&#xa3;" horiz-adv-x="890" d="M152 657v134h114q-31 94 -45 138t-27.5 109t-13.5 115q0 167 85.5 266t230.5 99q148 0 237.5 -109t89.5 -297v-12h-186q-6 252 -135 252q-57 0 -91 -46.5t-34 -129.5q0 -102 96 -385h215v-134h-174q14 -69 14 -127q0 -167 -114 -311q43 19 80 19q40 0 113 -34t108 -34 q47 0 108 45l54 -162q-93 -78 -175 -78q-53 0 -150.5 48.5t-143.5 48.5q-103 0 -181 -84l-69 145q176 206 176 387q0 58 -27 137h-155z" />
<glyph unicode="&#xa4;" horiz-adv-x="890" d="M37 596l14 86h129v90q0 55 2 92h-145l16 86h133q20 298 106.5 433t248.5 135q113 0 193 -84.5t116 -257.5l-184 -60q-14 116 -45.5 173t-85.5 57q-70 0 -101 -93t-37 -303h267l-15 -86h-254v-182h221l-16 -86h-203q3 -237 32 -336.5t103 -99.5q64 0 93 66t45 225l190 -66 q-60 -410 -336 -410q-155 0 -240 149.5t-100 471.5h-147z" />
<glyph unicode="&#xa5;" horiz-adv-x="890" d="M66 612v86h256l-54 181h-202v86h174l-156 528h209l158 -651l155 651h201l-158 -528h176v-86h-198l-58 -181h256v-86h-276v-612h-201v612h-282z" />
<glyph unicode="&#xa6;" d="M438 -350v758h150v-758h-150zM438 674v758h150v-758h-150z" />
<glyph unicode="&#xa7;" d="M119 891q0 87 56.5 147.5t160.5 83.5q-107 125 -107 226q0 106 81 176.5t210 70.5q170 0 291 -157l-125 -95q-88 101 -166 101q-47 0 -78.5 -30t-31.5 -73q0 -15 4.5 -30.5t17 -34t23.5 -33.5t34.5 -40t39.5 -41.5t50 -50t54 -54.5q10 -10 48 -48.5t48 -49t40.5 -42.5 t39.5 -45t30.5 -41t28.5 -45.5t17.5 -42.5t14 -48t3.5 -48q0 -98 -58 -158.5t-165 -72.5q113 -125 113 -254q0 -113 -83 -186.5t-214 -73.5q-191 0 -308 174l125 90q47 -57 89 -84t90 -27q57 0 89.5 30t32.5 83q0 19 -4 36.5t-15.5 38t-20.5 35t-31.5 40t-35 38.5t-44.5 46 t-47 49q-17 18 -55.5 57.5t-53 55.5t-45 48.5t-43 49t-33.5 44.5t-29.5 47t-19.5 43.5t-14.5 47.5t-3.5 47zM287 903q0 -11 2.5 -22t5.5 -20t11 -21t13 -19t17.5 -21.5t18 -21t22 -23.5t22.5 -24q12 -13 33.5 -36t31.5 -33.5t27.5 -29t27.5 -27t24.5 -21t25 -18t23.5 -12 t24.5 -9t24.5 -2.5q37 0 61.5 26.5t24.5 67.5q0 26 -15.5 55t-32 48.5t-56.5 62.5q-18 19 -49 53.5t-44.5 49t-37 36.5t-38 30.5t-34.5 15.5t-41 7q-37 0 -64.5 -27t-27.5 -65z" />
<glyph unicode="&#xa8;" d="M270 1300v173h156v-173h-156zM598 1300v173h156v-173h-156z" />
<glyph unicode="&#xa9;" horiz-adv-x="1705" d="M117 727q0 147 56 281.5t163 242.5q103 103 235.5 158t280.5 55q309 0 524 -215q103 -103 159 -238t56 -284q0 -150 -55 -282t-158 -234q-109 -106 -245 -163.5t-281 -57.5q-146 0 -279 56.5t-239 162.5t-161.5 239t-55.5 279zM213 727q0 -126 49 -242.5t141 -208.5 q188 -188 451 -188q126 0 242.5 49t212.5 142q184 181 184 448q0 130 -47.5 247t-136.5 206q-188 188 -455 188q-264 0 -448 -184q-93 -93 -143 -211.5t-50 -245.5zM463 733q0 201 109.5 323t285.5 122q142 0 236.5 -75.5t105.5 -195.5h-147q-12 77 -65.5 118.5t-139.5 41.5 q-103 0 -164 -89t-61 -251q0 -158 62.5 -245t172.5 -87q82 0 137 46.5t68 129.5h145q-9 -131 -107 -211.5t-249 -80.5q-181 0 -285 119.5t-104 334.5z" />
<glyph unicode="&#xaa;" horiz-adv-x="649" d="M66 1186q0 194 48.5 293.5t139.5 99.5q102 0 149 -129v115h148v-791h-148v131q-53 -139 -149 -139q-90 0 -139 107.5t-49 312.5zM219 1184q0 -154 20 -222.5t72 -68.5q54 0 76.5 69.5t22.5 221.5q0 276 -93 276q-51 0 -74.5 -67.5t-23.5 -208.5z" />
<glyph unicode="&#xab;" horiz-adv-x="894" d="M82 580l188 319h195l-195 -319l195 -322h-195zM461 580l190 319h193l-193 -319l193 -322h-193z" />
<glyph unicode="&#xac;" horiz-adv-x="1705" d="M254 721v139h1198v-502h-137v363h-1061z" />
<glyph unicode="&#xad;" horiz-adv-x="645" d="M119 498v174h407v-174h-407z" />
<glyph unicode="&#xae;" horiz-adv-x="1705" d="M117 727q0 146 58 282.5t165 245.5q206 209 512 209q151 0 285.5 -56t240.5 -163q102 -104 157.5 -237.5t55.5 -280.5q0 -309 -215 -518q-109 -106 -244 -162.5t-280 -56.5q-147 0 -280.5 57t-239.5 164q-105 106 -160 238t-55 278zM213 727q0 -257 188 -448 q90 -92 206.5 -141.5t240.5 -49.5q265 0 459 188q90 87 138 202t48 243q0 275 -182 457q-187 190 -457 190q-267 0 -446 -182q-94 -95 -144.5 -214t-50.5 -245zM557 324v835h315q349 0 349 -229q0 -89 -50 -147.5t-141 -77.5l187 -381h-177l-170 356h-155v-356h-158z M715 780h133q110 0 160.5 30.5t50.5 102.5q0 76 -52 110t-163 34h-129v-277z" />
<glyph unicode="&#xaf;" d="M287 1321v133h450v-133h-450z" />
<glyph unicode="&#xb0;" horiz-adv-x="673" d="M49 1167q0 121 85 205t204 84t203 -84.5t84 -204.5q0 -118 -83.5 -202t-205.5 -84q-121 0 -204 83t-83 203zM143 1169q0 -82 56.5 -139t138.5 -57t137 57.5t55 138.5q0 80 -55.5 136.5t-136.5 56.5q-80 0 -137.5 -56t-57.5 -137z" />
<glyph unicode="&#xb1;" horiz-adv-x="1705" d="M254 29v141h1198v-141h-1198zM254 713v139h528v340h142v-340h528v-139h-528v-340h-142v340h-528z" />
<glyph unicode="&#xb2;" horiz-adv-x="587" d="M33 596l272 498q60 111 60 200q0 52 -24 80.5t-67 28.5q-94 0 -94 -148v-16h-133v21q0 116 64.5 181.5t175.5 65.5q101 0 161 -57.5t60 -155.5q0 -99 -92 -260l-183 -321h267v-117h-467z" />
<glyph unicode="&#xb3;" horiz-adv-x="587" d="M51 846h137v-6q0 -68 23 -105t65 -37q48 0 74.5 45t26.5 129q0 195 -111 195q-48 0 -86 -41l-78 57l205 301h-231v107h442l-231 -340q27 6 51 6q84 0 131 -69t47 -201q0 -148 -62.5 -226.5t-177.5 -78.5q-105 0 -163 67.5t-62 196.5z" />
<glyph unicode="&#xb4;" d="M391 1266l170 270h178l-247 -270h-101z" />
<glyph unicode="&#xb5;" horiz-adv-x="1150" d="M-113 -428l318 1499h180l-129 -600q-14 -63 -14 -133q0 -99 52 -153t148 -54q135 0 211 96t121 308l115 536h178l-156 -731q-22 -108 -22 -133q0 -37 17 -52.5t55 -15.5q20 0 32 2l-30 -143q-49 -10 -109 -10q-64 0 -97 29.5t-52 99.5q-88 -131 -271 -131 q-82 0 -143 27.5t-113 88.5l-110 -530h-181z" />
<glyph unicode="&#xb6;" d="M66 1130q0 156 106.5 252.5t286.5 96.5h499v-86h-120v-1393h-111v1393h-178v-1393h-111v782q-172 7 -272 102t-100 246z" />
<glyph unicode="&#xb7;" horiz-adv-x="446" d="M94 748q0 53 37.5 89.5t91.5 36.5t90.5 -36t36.5 -90t-37 -92t-90 -38q-51 0 -90 39.5t-39 90.5z" />
<glyph unicode="&#xb8;" d="M330 -342q135 -23 178 -23q110 0 110 80q0 42 -29.5 66t-82.5 24q-13 0 -37 -4v199h76v-102h6q99 0 153 -46.5t54 -127.5q0 -96 -62.5 -145.5t-183.5 -49.5q-57 0 -182 27v102z" />
<glyph unicode="&#xb9;" horiz-adv-x="587" d="M106 1251v109q136 53 230 147h35v-911h-133v727q-69 -49 -132 -72z" />
<glyph unicode="&#xba;" horiz-adv-x="638" d="M61 1169q0 414 256 414q131 0 194.5 -103t63.5 -311t-63.5 -309.5t-194.5 -101.5q-256 0 -256 411zM215 1174q0 -152 23 -221.5t79 -69.5q58 0 81.5 69t23.5 222t-24 222.5t-81 69.5t-79.5 -69t-22.5 -223z" />
<glyph unicode="&#xbb;" horiz-adv-x="894" d="M51 258l193 322l-193 319h193l190 -319l-190 -322h-193zM430 258l195 322l-195 319h195l188 -319l-188 -322h-195z" />
<glyph unicode="&#xbc;" horiz-adv-x="1464" d="M100 1270v100q131 49 222 137h32v-850h-127v678q-78 -49 -127 -65zM334 -25l688 1543h108l-686 -1543h-110zM946 158v88l271 590h124v-578h97v-100h-97v-158h-124v158h-271zM1038 258h179v287q0 44 16 145z" />
<glyph unicode="&#xbd;" horiz-adv-x="1464" d="M100 1270v100q131 49 222 137h32v-850h-127v678q-78 -49 -127 -65zM334 -25l688 1543h108l-686 -1543h-110zM934 0l260 465q57 102 57 186q0 49 -22.5 75t-63.5 26q-43 0 -66.5 -34.5t-23.5 -101.5v-16h-127v18q0 109 61.5 170.5t168.5 61.5q97 0 152.5 -53.5 t55.5 -145.5q0 -53 -22 -109.5t-66 -133.5l-172 -299h252v-109h-444z" />
<glyph unicode="&#xbe;" horiz-adv-x="1464" d="M49 891h131v-6q0 -64 22 -97.5t62 -33.5q45 0 70.5 41.5t25.5 119.5q0 183 -106 183q-43 0 -82 -39l-74 53l197 281h-223v100h424l-222 -317q24 6 48 6q81 0 126.5 -65.5t45.5 -186.5q0 -139 -60 -213t-170 -74q-100 0 -156 63.5t-59 184.5zM334 -25l688 1543h108 l-686 -1543h-110zM946 158v88l271 590h124v-578h97v-100h-97v-158h-124v158h-271zM1038 258h179v287q0 44 16 145z" />
<glyph unicode="&#xbf;" horiz-adv-x="724" d="M37 330q0 46 9 91.5t17.5 75.5t33 77t34.5 64.5t45.5 71.5t42.5 66q49 79 72.5 151t23.5 177q0 8 -1 23.5t-1 23.5h172q2 -29 2 -84q0 -105 -22 -189t-74 -167q-10 -17 -46.5 -70.5t-53.5 -84.5t-34 -89.5t-17 -120.5q0 -188 112 -188q131 0 131 233v31h195v-14 q0 -214 -86.5 -323.5t-255.5 -109.5q-137 0 -218 93.5t-81 261.5zM272 1464q0 54 37 91.5t90 37.5q51 0 90 -39t39 -90q0 -53 -37.5 -90t-91.5 -37t-90.5 36.5t-36.5 90.5z" />
<glyph unicode="&#xc0;" horiz-adv-x="919" d="M20 0l338 1565h222l340 -1565h-209l-68 324h-360l-68 -324h-195zM233 1976h179l170 -272h-101zM319 510h289l-147 719z" />
<glyph unicode="&#xc1;" horiz-adv-x="919" d="M20 0l338 1565h222l340 -1565h-209l-68 324h-360l-68 -324h-195zM319 510h289l-147 719zM340 1704l170 270h178l-248 -270h-100z" />
<glyph unicode="&#xc2;" horiz-adv-x="919" d="M20 0l338 1565h222l340 -1565h-209l-68 324h-360l-68 -324h-195zM205 1704l172 272h168l172 -272h-99l-157 166l-158 -166h-98zM319 510h289l-147 719z" />
<glyph unicode="&#xc3;" horiz-adv-x="919" d="M20 0l338 1565h222l340 -1565h-209l-68 324h-360l-68 -324h-195zM213 1724q42 195 176 195q23 0 41 -6l107 -33q10 -4 28 -4q26 0 44 18t24 52h74q-13 -98 -55.5 -148.5t-110.5 -50.5q-27 0 -60 10l-86 29q-10 4 -35 4q-22 0 -41.5 -17.5t-29.5 -48.5h-76zM319 510h289 l-147 719z" />
<glyph unicode="&#xc4;" horiz-adv-x="919" d="M20 0l338 1565h222l340 -1565h-209l-68 324h-360l-68 -324h-195zM219 1739v172h156v-172h-156zM319 510h289l-147 719zM547 1739v172h155v-172h-155z" />
<glyph unicode="&#xc5;" horiz-adv-x="919" d="M20 0l326 1501q-129 67 -129 219q0 106 73 179t179 73t180 -73t74 -179q0 -150 -133 -221l330 -1499h-209l-68 324h-360l-68 -324h-195zM319 510h289l-147 719zM336 1720q0 -57 39 -96t96 -39t95 39t38 96q0 56 -39 95.5t-94 39.5q-57 0 -96 -39t-39 -96z" />
<glyph unicode="&#xc6;" horiz-adv-x="1251" d="M-33 0l490 1565h704v-185h-370v-454h370v-185h-370v-551h370v-190h-581v324h-308l-92 -324h-213zM324 500h256v913h-11z" />
<glyph unicode="&#xc7;" horiz-adv-x="901" d="M94 786q0 408 109 606.5t338 198.5q133 0 224.5 -89t135.5 -263l-211 -65q-15 113 -58.5 171t-111.5 58q-205 0 -205 -621q0 -317 45 -463.5t152 -146.5q156 0 190 303l211 -74q-34 -211 -137 -319.5t-268 -108.5q-217 0 -315.5 198t-98.5 615zM322 -342q135 -23 178 -23 q110 0 110 80q0 42 -29.5 66t-82.5 24q-13 0 -37 -4v199h76v-102h6q99 0 153 -46.5t54 -127.5q0 -96 -62.5 -145.5t-183.5 -49.5q-57 0 -182 27v102z" />
<glyph unicode="&#xc8;" horiz-adv-x="792" d="M141 0v1565h561v-185h-350v-454h350v-185h-350v-551h350v-190h-561zM193 1976h178l170 -272h-101z" />
<glyph unicode="&#xc9;" horiz-adv-x="792" d="M141 0v1565h561v-185h-350v-454h350v-185h-350v-551h350v-190h-561zM299 1704l170 270h178l-248 -270h-100z" />
<glyph unicode="&#xca;" horiz-adv-x="792" d="M141 0v1565h561v-185h-350v-454h350v-185h-350v-551h350v-190h-561zM164 1704l172 272h168l172 -272h-98l-158 166l-158 -166h-98z" />
<glyph unicode="&#xcb;" horiz-adv-x="792" d="M141 0v1565h561v-185h-350v-454h350v-185h-350v-551h350v-190h-561zM178 1739v172h156v-172h-156zM506 1739v172h156v-172h-156z" />
<glyph unicode="&#xcc;" horiz-adv-x="495" d="M20 1976h179l170 -272h-101zM141 0v1565h211v-1565h-211z" />
<glyph unicode="&#xcd;" horiz-adv-x="495" d="M127 1704l170 270h178l-248 -270h-100zM141 0v1565h211v-1565h-211z" />
<glyph unicode="&#xce;" horiz-adv-x="495" d="M-8 1704l172 272h168l172 -272h-98l-158 166l-158 -166h-98zM141 0v1565h211v-1565h-211z" />
<glyph unicode="&#xcf;" horiz-adv-x="495" d="M6 1739v172h156v-172h-156zM141 0v1565h211v-1565h-211zM334 1739v172h155v-172h-155z" />
<glyph unicode="&#xd0;" horiz-adv-x="993" d="M18 764v133h144v668h223q263 0 400 -192.5t137 -569.5q0 -389 -143 -596t-406 -207h-211v764h-144zM373 190q165 6 246 163.5t81 471.5q0 553 -327 559v-487h135v-133h-135v-574z" />
<glyph unicode="&#xd1;" horiz-adv-x="1030" d="M141 0v1565h217l267 -885q32 -105 108 -436h15q-58 430 -58 684v637h199v-1565h-213l-268 877q-66 217 -107 428h-14q55 -515 55 -697v-608h-201zM279 1724q42 195 176 195q23 0 41 -6l106 -33q10 -4 29 -4q55 0 67 70h74q-13 -98 -55.5 -148.5t-110.5 -50.5 q-26 0 -59 10l-86 29q-10 4 -35 4q-22 0 -42 -17.5t-30 -48.5h-75z" />
<glyph unicode="&#xd2;" horiz-adv-x="997" d="M94 782q0 413 98.5 613t307.5 200q214 0 308.5 -205t94.5 -640q0 -781 -403 -781q-209 0 -307.5 200t-98.5 613zM272 1976h179l170 -272h-101zM315 788q0 -321 42 -468.5t143 -147.5q102 0 142 145t40 471q0 323 -41 471t-141 148q-102 0 -143.5 -148t-41.5 -471z" />
<glyph unicode="&#xd3;" horiz-adv-x="997" d="M94 782q0 413 98.5 613t307.5 200q214 0 308.5 -205t94.5 -640q0 -781 -403 -781q-209 0 -307.5 200t-98.5 613zM315 788q0 -321 42 -468.5t143 -147.5q102 0 142 145t40 471q0 323 -41 471t-141 148q-102 0 -143.5 -148t-41.5 -471zM379 1704l170 270h178l-248 -270 h-100z" />
<glyph unicode="&#xd4;" horiz-adv-x="997" d="M94 782q0 413 98.5 613t307.5 200q214 0 308.5 -205t94.5 -640q0 -781 -403 -781q-209 0 -307.5 200t-98.5 613zM244 1704l172 272h168l172 -272h-99l-157 166l-158 -166h-98zM315 788q0 -321 42 -468.5t143 -147.5q102 0 142 145t40 471q0 323 -41 471t-141 148 q-102 0 -143.5 -148t-41.5 -471z" />
<glyph unicode="&#xd5;" horiz-adv-x="997" d="M94 782q0 413 98.5 613t307.5 200q214 0 308.5 -205t94.5 -640q0 -781 -403 -781q-209 0 -307.5 200t-98.5 613zM252 1724q42 195 176 195q23 0 41 -6l106 -33q10 -4 29 -4q26 0 44 18t24 52h73q-27 -199 -165 -199q-27 0 -60 10l-86 29q-10 4 -35 4q-22 0 -41.5 -17.5 t-29.5 -48.5h-76zM315 788q0 -321 42 -468.5t143 -147.5q102 0 142 145t40 471q0 323 -41 471t-141 148q-102 0 -143.5 -148t-41.5 -471z" />
<glyph unicode="&#xd6;" horiz-adv-x="997" d="M94 782q0 413 98.5 613t307.5 200q214 0 308.5 -205t94.5 -640q0 -781 -403 -781q-209 0 -307.5 200t-98.5 613zM258 1739v172h156v-172h-156zM315 788q0 -321 42 -468.5t143 -147.5q102 0 142 145t40 471q0 323 -41 471t-141 148q-102 0 -143.5 -148t-41.5 -471z M586 1739v172h155v-172h-155z" />
<glyph unicode="&#xd7;" horiz-adv-x="1705" d="M293 141l469 469l-469 469l98 99l469 -469l469 469l98 -99l-469 -469l469 -469l-98 -96l-469 467l-469 -467z" />
<glyph unicode="&#xd8;" horiz-adv-x="997" d="M61 0l107 217q-74 210 -74 565q0 413 98.5 613t307.5 200q87 0 151 -34t119 -107l88 174l84 -41l-115 -233q76 -198 76 -572q0 -414 -97 -613.5t-306 -199.5q-177 0 -279 150l-82 -166zM315 741q0 -109 11 -252l319 768q-47 150 -145 150q-106 0 -145.5 -156t-39.5 -510z M352 324q46 -152 148 -152t142 145t40 471q0 74 -6 302z" />
<glyph unicode="&#xd9;" d="M141 504v1061h211v-1043q0 -193 32.5 -274.5t127.5 -81.5t127.5 81.5t32.5 274.5v1043h211v-1061q0 -273 -89 -404t-282 -131t-282 131t-89 404zM285 1976h178l170 -272h-101z" />
<glyph unicode="&#xda;" d="M141 504v1061h211v-1043q0 -193 32.5 -274.5t127.5 -81.5t127.5 81.5t32.5 274.5v1043h211v-1061q0 -273 -89 -404t-282 -131t-282 131t-89 404zM391 1704l170 270h178l-247 -270h-101z" />
<glyph unicode="&#xdb;" d="M141 504v1061h211v-1043q0 -193 32.5 -274.5t127.5 -81.5t127.5 81.5t32.5 274.5v1043h211v-1061q0 -273 -89 -404t-282 -131t-282 131t-89 404zM256 1704l172 272h168l172 -272h-98l-158 166l-158 -166h-98z" />
<glyph unicode="&#xdc;" d="M141 504v1061h211v-1043q0 -193 32.5 -274.5t127.5 -81.5t127.5 81.5t32.5 274.5v1043h211v-1061q0 -273 -89 -404t-282 -131t-282 131t-89 404zM270 1739v172h156v-172h-156zM598 1739v172h156v-172h-156z" />
<glyph unicode="&#xdd;" horiz-adv-x="716" d="M-18 1565h219l164 -684l163 684h211l-270 -916v-649h-211v639zM238 1704l170 270h178l-248 -270h-100z" />
<glyph unicode="&#xde;" horiz-adv-x="858" d="M141 0v1565h211v-215h10q216 0 335.5 -122t119.5 -343q0 -228 -112.5 -364t-292.5 -136h-60v-385h-211zM352 571h17q109 0 169 75.5t60 215.5q0 158 -59 233.5t-183 75.5h-4v-600z" />
<glyph unicode="&#xdf;" horiz-adv-x="843" d="M127 0v1174q0 208 71.5 306.5t227.5 98.5q149 0 234 -100t85 -275q0 -286 -176 -313q120 -32 174 -127.5t54 -269.5q0 -250 -84 -381t-240 -131q-23 0 -35 2l-37 196q24 -4 37 -4q152 0 152 303q0 156 -45 231t-144 78v166q146 0 146 228q0 217 -119 217q-50 0 -77 -42.5 t-27 -123.5v-1233h-197z" />
<glyph unicode="&#xe0;" horiz-adv-x="864" d="M88 588q0 278 64 419.5t186 141.5q136 0 201 -182v163h196v-1130h-196v186q-71 -198 -201 -198q-120 0 -185 153.5t-65 446.5zM205 1538h178l170 -272h-100zM293 586q0 -220 26.5 -318t94.5 -98q72 0 102.5 100t30.5 316q0 393 -123 393q-68 0 -99.5 -96t-31.5 -297z" />
<glyph unicode="&#xe1;" horiz-adv-x="864" d="M88 588q0 278 64 419.5t186 141.5q136 0 201 -182v163h196v-1130h-196v186q-71 -198 -201 -198q-120 0 -185 153.5t-65 446.5zM293 586q0 -220 26.5 -318t94.5 -98q72 0 102.5 100t30.5 316q0 393 -123 393q-68 0 -99.5 -96t-31.5 -297zM311 1266l170 270h178l-247 -270 h-101z" />
<glyph unicode="&#xe2;" horiz-adv-x="864" d="M88 588q0 278 64 419.5t186 141.5q136 0 201 -182v163h196v-1130h-196v186q-71 -198 -201 -198q-120 0 -185 153.5t-65 446.5zM176 1266l172 272h168l172 -272h-98l-158 166l-158 -166h-98zM293 586q0 -220 26.5 -318t94.5 -98q72 0 102.5 100t30.5 316q0 393 -123 393 q-68 0 -99.5 -96t-31.5 -297z" />
<glyph unicode="&#xe3;" horiz-adv-x="864" d="M88 588q0 278 64 419.5t186 141.5q136 0 201 -182v163h196v-1130h-196v186q-71 -198 -201 -198q-120 0 -185 153.5t-65 446.5zM184 1286q42 195 176 195q23 0 41 -6l107 -33q10 -4 29 -4q55 0 67 69h74q-13 -98 -55.5 -148t-110.5 -50q-26 0 -59 10l-86 29q-10 4 -35 4 q-22 0 -42 -17.5t-30 -48.5h-76zM293 586q0 -220 26.5 -318t94.5 -98q72 0 102.5 100t30.5 316q0 393 -123 393q-68 0 -99.5 -96t-31.5 -297z" />
<glyph unicode="&#xe4;" horiz-adv-x="864" d="M88 588q0 278 64 419.5t186 141.5q136 0 201 -182v163h196v-1130h-196v186q-71 -198 -201 -198q-120 0 -185 153.5t-65 446.5zM190 1300v173h156v-173h-156zM293 586q0 -220 26.5 -318t94.5 -98q72 0 102.5 100t30.5 316q0 393 -123 393q-68 0 -99.5 -96t-31.5 -297z M518 1300v173h156v-173h-156z" />
<glyph unicode="&#xe5;" horiz-adv-x="864" d="M88 588q0 278 64 419.5t186 141.5q136 0 201 -182v163h196v-1130h-196v186q-71 -198 -201 -198q-120 0 -185 153.5t-65 446.5zM199 1475q0 106 73 178.5t179 72.5t180 -73t74 -178q0 -107 -73.5 -180.5t-180.5 -73.5q-106 0 -179 73.5t-73 180.5zM293 586 q0 -220 26.5 -318t94.5 -98q72 0 102.5 100t30.5 316q0 393 -123 393q-68 0 -99.5 -96t-31.5 -297zM315 1475q0 -57 39.5 -96.5t96.5 -39.5t96 39.5t39 96.5q0 55 -40 95t-95 40q-57 0 -96.5 -39t-39.5 -96z" />
<glyph unicode="&#xe6;" horiz-adv-x="1220" d="M88 588q0 278 64 419.5t186 141.5q136 0 201 -182v163h163v-163q74 188 205 188q111 0 181.5 -124t70.5 -345v-131h-430v-55q0 -176 30 -261t97 -85q108 0 117 208h170q-4 -186 -68.5 -286.5t-173.5 -100.5q-74 0 -122.5 54t-76.5 164v-193h-163v186q-71 -198 -201 -198 q-120 0 -185 153.5t-65 446.5zM293 586q0 -220 26.5 -318t94.5 -98q72 0 102.5 100t30.5 316q0 393 -123 393q-68 0 -99.5 -96t-31.5 -297zM731 711h236v14q0 134 -29 199t-90 65q-117 0 -117 -278z" />
<glyph unicode="&#xe7;" horiz-adv-x="702" d="M82 573q0 294 78.5 438t242.5 144q125 0 200 -77t85 -218l-178 -47q-11 91 -35.5 131.5t-73.5 40.5q-63 0 -87.5 -94.5t-24.5 -302.5q0 -225 28 -328.5t97 -103.5q46 0 69.5 50t32.5 159l176 -68q-20 -157 -93 -239.5t-191 -82.5q-169 0 -247.5 147t-78.5 451zM205 -342 q135 -23 178 -23q111 0 111 80q0 42 -30 66t-83 24q-13 0 -37 -4v199h76v-102h6q99 0 153 -46.5t54 -127.5q0 -96 -62.5 -145.5t-183.5 -49.5q-57 0 -182 27v102z" />
<glyph unicode="&#xe8;" horiz-adv-x="833" d="M82 584q0 283 90.5 427t265.5 144q160 0 243 -118.5t83 -350.5v-131h-477v-43q0 -188 31.5 -273t107.5 -85q119 0 131 208h191q-12 -188 -97 -287.5t-229 -99.5q-173 0 -256.5 151t-83.5 458zM209 1538h178l170 -272h-100zM289 711h280v12q0 135 -34 200.5t-107 65.5 q-139 0 -139 -278z" />
<glyph unicode="&#xe9;" horiz-adv-x="833" d="M82 584q0 283 90.5 427t265.5 144q160 0 243 -118.5t83 -350.5v-131h-477v-43q0 -188 31.5 -273t107.5 -85q119 0 131 208h191q-12 -188 -97 -287.5t-229 -99.5q-173 0 -256.5 151t-83.5 458zM289 711h280v12q0 135 -34 200.5t-107 65.5q-139 0 -139 -278zM315 1266 l170 270h179l-248 -270h-101z" />
<glyph unicode="&#xea;" horiz-adv-x="833" d="M82 584q0 283 90.5 427t265.5 144q160 0 243 -118.5t83 -350.5v-131h-477v-43q0 -188 31.5 -273t107.5 -85q119 0 131 208h191q-12 -188 -97 -287.5t-229 -99.5q-173 0 -256.5 151t-83.5 458zM180 1266l172 272h168l172 -272h-98l-158 166l-157 -166h-99zM289 711h280v12 q0 135 -34 200.5t-107 65.5q-139 0 -139 -278z" />
<glyph unicode="&#xeb;" horiz-adv-x="833" d="M82 584q0 283 90.5 427t265.5 144q160 0 243 -118.5t83 -350.5v-131h-477v-43q0 -188 31.5 -273t107.5 -85q119 0 131 208h191q-12 -188 -97 -287.5t-229 -99.5q-173 0 -256.5 151t-83.5 458zM195 1300v173h155v-173h-155zM289 711h280v12q0 135 -34 200.5t-107 65.5 q-139 0 -139 -278zM522 1300v173h156v-173h-156z" />
<glyph unicode="&#xec;" horiz-adv-x="491" d="M18 1538h179l170 -272h-101zM145 0v1130h199v-1130h-199z" />
<glyph unicode="&#xed;" horiz-adv-x="491" d="M125 1266l170 270h178l-248 -270h-100zM145 0v1130h199v-1130h-199z" />
<glyph unicode="&#xee;" horiz-adv-x="491" d="M-10 1266l172 272h168l172 -272h-99l-157 166l-158 -166h-98zM145 0v1130h199v-1130h-199z" />
<glyph unicode="&#xef;" horiz-adv-x="491" d="M4 1300v173h156v-173h-156zM145 0v1130h199v-1130h-199zM332 1300v173h155v-173h-155z" />
<glyph unicode="&#xf0;" horiz-adv-x="851" d="M82 565q0 588 336 588q46 0 82 -16q-46 116 -97 176l-190 -123l-49 76l182 116q-68 74 -141 111l45 86q108 -45 205 -127l202 127l48 -72l-189 -121q252 -276 252 -821q0 -297 -85 -442.5t-259 -145.5t-258 145.5t-84 442.5zM287 571q0 -217 31 -316t106 -99 q76 0 107.5 98.5t31.5 316.5q0 217 -32 317.5t-107 100.5q-76 0 -106.5 -99.5t-30.5 -318.5z" />
<glyph unicode="&#xf1;" horiz-adv-x="886" d="M139 0v1130h189v-143q47 85 103 125.5t126 40.5q111 0 160 -79.5t49 -248.5v-825h-197v778q0 98 -24.5 143.5t-83.5 45.5q-57 0 -91 -49t-34 -138v-780h-197zM221 1286q42 195 176 195q23 0 41 -6l107 -33q10 -4 28 -4q56 0 68 69h74q-13 -98 -55.5 -148t-110.5 -50 q-27 0 -60 10l-86 29q-10 4 -34 4q-22 0 -42 -17.5t-30 -48.5h-76z" />
<glyph unicode="&#xf2;" horiz-adv-x="851" d="M82 565q0 590 342 590q174 0 259 -146.5t85 -443.5t-85 -442.5t-259 -145.5q-173 0 -257.5 145.5t-84.5 442.5zM199 1538h178l170 -272h-101zM287 571q0 -217 31 -316t106 -99q76 0 107.5 98.5t31.5 316.5q0 217 -32 317.5t-107 100.5q-76 0 -106.5 -99.5t-30.5 -318.5z " />
<glyph unicode="&#xf3;" horiz-adv-x="851" d="M82 565q0 590 342 590q174 0 259 -146.5t85 -443.5t-85 -442.5t-259 -145.5q-173 0 -257.5 145.5t-84.5 442.5zM287 571q0 -217 31 -316t106 -99q76 0 107.5 98.5t31.5 316.5q0 217 -32 317.5t-107 100.5q-76 0 -106.5 -99.5t-30.5 -318.5zM305 1266l170 270h178 l-247 -270h-101z" />
<glyph unicode="&#xf4;" horiz-adv-x="851" d="M82 565q0 590 342 590q174 0 259 -146.5t85 -443.5t-85 -442.5t-259 -145.5q-173 0 -257.5 145.5t-84.5 442.5zM170 1266l172 272h168l172 -272h-98l-158 166l-158 -166h-98zM287 571q0 -217 31 -316t106 -99q76 0 107.5 98.5t31.5 316.5q0 217 -32 317.5t-107 100.5 q-76 0 -106.5 -99.5t-30.5 -318.5z" />
<glyph unicode="&#xf5;" horiz-adv-x="851" d="M82 565q0 590 342 590q174 0 259 -146.5t85 -443.5t-85 -442.5t-259 -145.5q-173 0 -257.5 145.5t-84.5 442.5zM178 1286q42 195 176 195q23 0 41 -6l107 -33q10 -4 28 -4q56 0 68 69h74q-13 -98 -55.5 -148t-110.5 -50q-27 0 -60 10l-86 29q-10 4 -34 4q-22 0 -42 -17.5 t-30 -48.5h-76zM287 571q0 -217 31 -316t106 -99q76 0 107.5 98.5t31.5 316.5q0 217 -32 317.5t-107 100.5q-76 0 -106.5 -99.5t-30.5 -318.5z" />
<glyph unicode="&#xf6;" horiz-adv-x="851" d="M82 565q0 590 342 590q174 0 259 -146.5t85 -443.5t-85 -442.5t-259 -145.5q-173 0 -257.5 145.5t-84.5 442.5zM184 1300v173h156v-173h-156zM287 571q0 -217 31 -316t106 -99q76 0 107.5 98.5t31.5 316.5q0 217 -32 317.5t-107 100.5q-76 0 -106.5 -99.5t-30.5 -318.5z M512 1300v173h156v-173h-156z" />
<glyph unicode="&#xf7;" horiz-adv-x="1705" d="M254 541v139h1198v-139h-1198zM729 242q0 52 37 88.5t88 36.5t88 -36.5t37 -88.5q0 -51 -36.5 -88t-88.5 -37q-54 0 -89.5 36t-35.5 89zM729 979q0 52 37 89.5t88 37.5t88 -37.5t37 -89.5q0 -51 -36.5 -88t-88.5 -37t-88.5 36t-36.5 89z" />
<glyph unicode="&#xf8;" horiz-adv-x="851" d="M66 0l81 156q-65 136 -65 409q0 590 342 590q137 0 225 -98l68 123l67 -37l-86 -158q70 -140 70 -420q0 -297 -85 -442.5t-259 -145.5q-146 0 -225 105l-68 -119zM287 555q0 -68 4 -186l237 540q-41 80 -104 80q-77 0 -107 -103t-30 -331zM319 240q37 -84 105 -84 q76 0 107.5 100.5t31.5 321.5q0 69 -6 198z" />
<glyph unicode="&#xf9;" horiz-adv-x="872" d="M119 428v702h196v-724q0 -125 28 -184.5t91 -59.5q64 0 92.5 59.5t28.5 184.5v724h197v-702q0 -229 -77.5 -341t-240.5 -112t-239 111.5t-76 341.5zM209 1538h178l170 -272h-100z" />
<glyph unicode="&#xfa;" horiz-adv-x="872" d="M119 428v702h196v-724q0 -125 28 -184.5t91 -59.5q64 0 92.5 59.5t28.5 184.5v724h197v-702q0 -229 -77.5 -341t-240.5 -112t-239 111.5t-76 341.5zM315 1266l170 270h179l-248 -270h-101z" />
<glyph unicode="&#xfb;" horiz-adv-x="872" d="M119 428v702h196v-724q0 -125 28 -184.5t91 -59.5q64 0 92.5 59.5t28.5 184.5v724h197v-702q0 -229 -77.5 -341t-240.5 -112t-239 111.5t-76 341.5zM180 1266l172 272h168l172 -272h-98l-158 166l-157 -166h-99z" />
<glyph unicode="&#xfc;" horiz-adv-x="872" d="M119 428v702h196v-724q0 -125 28 -184.5t91 -59.5q64 0 92.5 59.5t28.5 184.5v724h197v-702q0 -229 -77.5 -341t-240.5 -112t-239 111.5t-76 341.5zM195 1300v173h155v-173h-155zM522 1300v173h156v-173h-156z" />
<glyph unicode="&#xfd;" horiz-adv-x="673" d="M27 1130h200l68 -403q30 -188 55 -473h15q41 488 55 571l47 305h199l-308 -1509h-190l92 449zM217 1266l170 270h178l-248 -270h-100z" />
<glyph unicode="&#xfe;" horiz-adv-x="874" d="M139 -379v1944h197v-604q27 91 80.5 139.5t120.5 48.5q127 0 188 -146t61 -442q0 -277 -66.5 -425t-182.5 -148q-64 0 -116 50.5t-85 147.5v-565h-197zM328 586q0 -216 30.5 -316t102.5 -100q66 0 93.5 94.5t27.5 302.5q0 214 -30 313t-101 99q-123 0 -123 -393z" />
<glyph unicode="&#xff;" horiz-adv-x="673" d="M27 1130h200l68 -403q30 -188 55 -473h15q41 488 55 571l47 305h199l-308 -1509h-190l92 449zM96 1300v173h156v-173h-156zM424 1300v173h156v-173h-156z" />
<glyph unicode="&#x131;" horiz-adv-x="491" d="M145 0v1130h199v-1130h-199z" />
<glyph unicode="&#x141;" horiz-adv-x="696" d="M0 621v159l141 103v682h211v-584l176 121v-162l-176 -123v-618h353v-199h-564v719z" />
<glyph unicode="&#x142;" horiz-adv-x="528" d="M18 598v129l148 100v738h196v-643l146 96v-129l-146 -103v-786h-196v694z" />
<glyph unicode="&#x152;" horiz-adv-x="1355" d="M94 782q0 413 98.5 613t307.5 200q143 0 202 -139v109h564v-185h-371v-454h371v-185h-371v-551h371v-190h-564v100q-73 -131 -219 -131q-389 0 -389 813zM315 788q0 -321 42 -468.5t143 -147.5q102 0 142 145t40 471q0 323 -41 471t-141 148q-102 0 -143.5 -148 t-41.5 -471z" />
<glyph unicode="&#x153;" horiz-adv-x="1294" d="M82 565q0 590 342 590q79 0 139.5 -42.5t95.5 -123.5q76 166 250 166q151 0 232.5 -119.5t81.5 -349.5v-131h-475v-43q0 -188 31.5 -273t107.5 -85q119 0 131 208h188q-12 -187 -93.5 -287t-217.5 -100q-179 0 -238 177q-32 -84 -93.5 -129.5t-139.5 -45.5 q-173 0 -257.5 145.5t-84.5 442.5zM287 571q0 -217 31 -316t106 -99q76 0 107.5 98.5t31.5 316.5q0 217 -32 317.5t-107 100.5q-76 0 -106.5 -99.5t-30.5 -318.5zM750 711h278v12q0 135 -33 200.5t-106 65.5q-139 0 -139 -278z" />
<glyph unicode="&#x160;" horiz-adv-x="815" d="M39 348l192 70q20 -130 63 -192t116 -62q68 0 113.5 55t45.5 143q0 82 -37 147t-118 153q-21 23 -69.5 69.5t-97 98t-89.5 106.5q-95 128 -95 291q0 165 97.5 266.5t253.5 101.5q147 0 237 -86.5t105 -246.5l-197 -70q-4 107 -42.5 162t-106.5 55q-61 0 -100.5 -46 t-39.5 -120q0 -76 34 -132.5t110 -137.5q17 -18 72 -69.5t103 -102.5t91 -109q102 -135 102 -307q0 -189 -104 -301.5t-275 -112.5q-151 0 -244.5 96t-119.5 281zM152 1976h98l158 -168l157 168h99l-172 -272h-168z" />
<glyph unicode="&#x161;" horiz-adv-x="677" d="M33 201l164 102q24 -72 65.5 -110.5t89.5 -38.5q54 0 86.5 37.5t32.5 103.5q0 17 -4 32.5t-8.5 28t-17.5 28.5t-20.5 25t-28 27t-30 25.5t-37 29.5t-38.5 31q-62 50 -96.5 81.5t-68.5 74t-48.5 87t-14.5 99.5q0 131 84.5 210t229.5 79q102 0 174 -56.5t100 -158.5 l-153 -90q-34 141 -138 141q-53 0 -84.5 -31.5t-31.5 -83.5q0 -18 4 -33.5t15.5 -32t21 -28t32 -30.5t36 -29.5t46 -34.5t49.5 -37q113 -87 167.5 -173t54.5 -185q0 -132 -92 -223t-222 -91q-214 0 -319 224zM84 1538h98l158 -168l158 168h98l-172 -272h-168z" />
<glyph unicode="&#x178;" horiz-adv-x="716" d="M-18 1565h219l164 -684l163 684h211l-270 -916v-649h-211v639zM117 1739v172h155v-172h-155zM444 1739v172h156v-172h-156z" />
<glyph unicode="&#x17d;" horiz-adv-x="720" d="M-16 0l489 1380h-436v185h708l-483 -1370h445v-195h-723zM104 1976h99l157 -168l158 168h98l-172 -272h-168z" />
<glyph unicode="&#x17e;" horiz-adv-x="626" d="M-4 0l375 950h-346v180h614l-375 -940h365v-190h-633zM57 1538h99l157 -168l158 168h98l-172 -272h-168z" />
<glyph unicode="&#x192;" horiz-adv-x="890" d="M-113 -449l37 175q42 -11 64 -11q70 0 110.5 61t69.5 195l182 848h-143v131h172l33 154q49 217 132.5 316.5t231.5 99.5q37 0 107 -17l-37 -172q-31 8 -60 8q-75 0 -117 -61t-69 -197l-27 -131h158v-131h-188l-189 -870q-45 -211 -127.5 -312.5t-218.5 -101.5 q-52 0 -121 16z" />
<glyph unicode="&#x2c6;" d="M256 1266l172 272h168l172 -272h-98l-158 166l-158 -166h-98z" />
<glyph unicode="&#x2c7;" d="M256 1538h98l158 -168l158 168h98l-172 -272h-168z" />
<glyph unicode="&#x2d8;" d="M258 1530h94q9 -64 47.5 -93.5t112.5 -29.5t111.5 29.5t46.5 93.5h94q-12 -133 -72.5 -194.5t-179.5 -61.5q-120 0 -182 62t-72 194z" />
<glyph unicode="&#x2d9;" d="M416 1319v221h192v-221h-192z" />
<glyph unicode="&#x2da;" d="M260 1499q0 106 73 180t179 74t180 -74t74 -180q0 -107 -73.5 -179.5t-180.5 -72.5q-106 0 -179 72.5t-73 179.5zM377 1499q0 -57 39 -96t96 -39t96 39t39 96q0 55 -39.5 95t-95.5 40q-57 0 -96 -39t-39 -96z" />
<glyph unicode="&#x2db;" d="M319 -274q0 68 45.5 133t141.5 141h82q-70 -62 -103.5 -114.5t-33.5 -106.5q0 -44 21.5 -61t74.5 -17h69v-143h-71q-226 0 -226 168z" />
<glyph unicode="&#x2dc;" d="M264 1286q42 195 176 195q23 0 41 -6l107 -33q10 -4 28 -4q56 0 68 69h74q-13 -98 -55.5 -148t-110.5 -50q-27 0 -60 10l-86 29q-10 4 -34 4q-22 0 -42 -17.5t-30 -48.5h-76z" />
<glyph unicode="&#x2dd;" d="M311 1266l117 348h168l-188 -348h-97zM569 1266l148 348h166l-217 -348h-97z" />
<glyph unicode="&#x2000;" horiz-adv-x="988" />
<glyph unicode="&#x2001;" horiz-adv-x="1976" />
<glyph unicode="&#x2002;" horiz-adv-x="988" />
<glyph unicode="&#x2003;" horiz-adv-x="1976" />
<glyph unicode="&#x2004;" horiz-adv-x="658" />
<glyph unicode="&#x2005;" horiz-adv-x="494" />
<glyph unicode="&#x2006;" horiz-adv-x="329" />
<glyph unicode="&#x2007;" horiz-adv-x="329" />
<glyph unicode="&#x2008;" horiz-adv-x="247" />
<glyph unicode="&#x2009;" horiz-adv-x="395" />
<glyph unicode="&#x200a;" horiz-adv-x="109" />
<glyph unicode="&#x2010;" horiz-adv-x="645" d="M119 498v174h407v-174h-407z" />
<glyph unicode="&#x2011;" horiz-adv-x="645" d="M119 498v174h407v-174h-407z" />
<glyph unicode="&#x2012;" horiz-adv-x="645" d="M119 498v174h407v-174h-407z" />
<glyph unicode="&#x2013;" d="M0 520v129h1024v-129h-1024z" />
<glyph unicode="&#x2014;" horiz-adv-x="2048" d="M0 520v129h2048v-129h-2048z" />
<glyph unicode="&#x2018;" horiz-adv-x="446" d="M51 1565h201l131 -432h-168z" />
<glyph unicode="&#x2019;" horiz-adv-x="446" d="M70 1133l131 432h200l-163 -432h-168z" />
<glyph unicode="&#x201a;" horiz-adv-x="446" d="M29 -209l131 430h198l-161 -430h-168z" />
<glyph unicode="&#x201c;" horiz-adv-x="796" d="M51 1565h201l131 -432h-168zM401 1565h201l131 -432h-168z" />
<glyph unicode="&#x201d;" horiz-adv-x="796" d="M70 1133l131 432h200l-163 -432h-168zM422 1133l129 432h201l-164 -432h-166z" />
<glyph unicode="&#x201e;" horiz-adv-x="796" d="M29 -209l131 430h198l-161 -430h-168zM379 -209l131 430h201l-164 -430h-168z" />
<glyph unicode="&#x2020;" d="M156 999v172h258v394h196v-394h258v-172h-258v-1122h-196v1122h-258z" />
<glyph unicode="&#x2021;" d="M156 270v172h258v557h-258v172h258v394h196v-394h258v-172h-258v-557h258v-172h-258v-393h-196v393h-258z" />
<glyph unicode="&#x2022;" horiz-adv-x="1208" d="M307 762q0 123 87 209t210 86q122 0 208.5 -86t86.5 -209q0 -122 -87 -209.5t-210 -87.5t-209 87t-86 210z" />
<glyph unicode="&#x2026;" horiz-adv-x="2048" d="M213 104q0 53 37.5 90t91.5 37t90.5 -36.5t36.5 -90.5t-37 -91.5t-90 -37.5q-51 0 -90 39t-39 90zM895 104q0 53 37.5 90t91.5 37t90.5 -36.5t36.5 -90.5t-37 -91.5t-90 -37.5q-51 0 -90 39t-39 90zM1579 104q0 53 37.5 90t91.5 37t90.5 -36.5t36.5 -90.5t-37 -91.5 t-90 -37.5q-51 0 -90 39t-39 90z" />
<glyph unicode="&#x202f;" horiz-adv-x="395" />
<glyph unicode="&#x2030;" horiz-adv-x="1953" d="M43 1169q0 173 66.5 261t195.5 88t196.5 -89t67.5 -260t-67.5 -259.5t-196.5 -88.5q-128 0 -195 88.5t-67 259.5zM215 1169q0 -107 20.5 -156.5t69.5 -49.5q51 0 71.5 48.5t20.5 157.5q0 108 -21 157.5t-71 49.5t-70 -49t-20 -158zM254 -25l688 1543h109l-686 -1543h-111 zM735 324q0 173 66.5 261.5t195.5 88.5t197 -89.5t68 -260.5t-68 -260t-197 -89q-128 0 -195 89t-67 260zM907 324q0 -106 20.5 -155.5t69.5 -49.5q52 0 73.5 48.5t21.5 156.5q0 107 -22.5 156.5t-72.5 49.5t-70 -48.5t-20 -157.5zM1382 324q0 173 67 261.5t196 88.5 t196.5 -89t67.5 -261q0 -171 -67.5 -260t-196.5 -89q-128 0 -195.5 89t-67.5 260zM1554 324q0 -106 21 -155.5t70 -49.5q51 0 71.5 48t20.5 157q0 108 -21 157t-71 49t-70.5 -49t-20.5 -157z" />
<glyph unicode="&#x2039;" horiz-adv-x="516" d="M82 580l188 319h195l-195 -319l195 -322h-195z" />
<glyph unicode="&#x203a;" horiz-adv-x="516" d="M51 258l193 322l-193 319h193l190 -319l-190 -322h-193z" />
<glyph unicode="&#x2044;" horiz-adv-x="342" d="M-227 -25l688 1543h108l-686 -1543h-110z" />
<glyph unicode="&#x205f;" horiz-adv-x="494" />
<glyph unicode="&#x20ac;" horiz-adv-x="890" d="M37 596l14 86h129v90q0 55 2 92h-145l16 86h133q20 298 106.5 433t248.5 135q113 0 193 -84.5t116 -257.5l-184 -60q-14 116 -45.5 173t-85.5 57q-70 0 -101 -93t-37 -303h267l-15 -86h-254v-182h221l-16 -86h-203q3 -237 32 -336.5t103 -99.5q64 0 93 66t45 225l190 -66 q-60 -410 -336 -410q-155 0 -240 149.5t-100 471.5h-147z" />
<glyph unicode="&#x2122;" horiz-adv-x="1705" d="M242 1378v80h452v-80h-172v-458h-108v458h-172zM813 920v538h150l151 -385l141 385h150v-538h-98v444l-166 -444h-56l-174 444v-444h-98z" />
<glyph unicode="&#x2212;" horiz-adv-x="1705" d="M254 541v141h1198v-141h-1198z" />
<glyph unicode="&#x25fc;" horiz-adv-x="1126" d="M0 0v1126h1126v-1126h-1126z" />
<glyph unicode="&#xfb01;" horiz-adv-x="993" d="M61 961v169h113v195q0 134 48.5 194t160.5 60h100v-193h-45q-36 0 -51.5 -21.5t-15.5 -68.5v-166h112v-169h-112v-961h-197v961h-113zM625 1405q0 53 37 91t90 38q54 0 91.5 -37.5t37.5 -91.5q0 -53 -38 -90t-91 -37q-51 0 -89 38t-38 89zM653 0v1130h197v-1130h-197z " />
<glyph unicode="&#xfb02;" horiz-adv-x="993" d="M61 961v169h113v195q0 134 48.5 194t160.5 60h100v-193h-45q-36 0 -51.5 -21.5t-15.5 -68.5v-166h112v-169h-112v-961h-197v961h-113zM653 0v1565h197v-1565h-197z" />
</font>
</defs>
</svg>
